<?xml version="1.0" encoding="UTF-8"?>
<svg width="24" height="24" viewBox="0 0 24 24" fill="none" xmlns="http://www.w3.org/2000/svg">
  <path d="M19 3H5C3.895 3 3 3.895 3 5V19C3 20.105 3.895 21 5 21H19C20.105 21 21 20.105 21 19V5C21 3.895 20.105 3 19 3ZM9 17H6.477V9H9V17ZM7.694 8.717C6.923 8.717 6.408 8.203 6.408 7.517C6.408 6.831 6.922 6.317 7.779 6.317C8.55 6.317 9.065 6.831 9.065 7.517C9.065 8.203 8.551 8.717 7.694 8.717ZM18 17H15.558V12.577C15.558 11.49 14.937 11.052 14.077 11.052C13.217 11.052 12.358 11.726 12.358 12.659V17H9.999V9H12.269V10.042C12.269 10.042 13.127 8.797 14.935 8.797C16.743 8.797 17.999 9.745 17.999 12.147V17H18Z" fill="#f6f6f6"/>
</svg>